<svg xmlns="http://www.w3.org/2000/svg" viewBox="0 0 64 64" role="img" aria-label="SMOVE favicon">
  <defs>
    <linearGradient id="g" x1="0" x2="1" y1="0" y2="1">
      <stop offset="0%" stop-color="#2563eb" />
      <stop offset="100%" stop-color="#0ea5e9" />
    </linearGradient>
  </defs>
  <rect width="64" height="64" rx="12" fill="url(#g)" />
  <path d="M18 42c2.5 3 6.6 5 12 5 7 0 12-3.8 12-9.3 0-4.4-2.8-6.8-9.2-8.2l-3.8-.8c-3-.7-4.3-1.7-4.3-3.3 0-2.1 2.2-3.7 5.9-3.7 3.7 0 6.2 1.4 7.8 3.4l4.4-3.6c-2.4-3.3-6.9-5.4-12.1-5.4-7 0-11.8 3.9-11.8 9.3 0 4.6 3.1 7.2 9.5 8.6l3.7.8c2.8.6 4 1.5 4 3.1 0 2.2-2.3 3.5-6.3 3.5-3.9 0-7-1.7-8.8-4.3z" fill="#fff"/>
</svg>
